{
  "accessors": [
    {
      "bufferView": 1,
      "componentType": 5126,
      "count": 48,
      "max": [
        360.0,
        -290.0,
        100.0
      ],
      "min": [
        210.0,
        -390.0,
        1.3100631690576847e-13
      ],
      "type": "VEC3"
    },
    {
      "bufferView": 1,
      "byteOffset": 576,
      "componentType": 5126,
      "count": 48,
      "max": [
        1.0,
        1.0,
        1.0
      ],
      "min": [
        -1.0,
        -1.0,
        -1.0
      ],
      "type": "VEC3"
    },
    {
      "bufferView": 0,
      "componentType": 5125,
      "count": 84,
      "type": "SCALAR"
    }
  ],
  "asset": {
    "extras": {
      "author": "tatorresj (https://sketchfab.com/tatorresj)",
      "license": "CC-BY-4.0 (http://creativecommons.org/licenses/by/4.0/)",
      "source": "https://sketchfab.com/3d-models/cubo-bedlam-f9-7fc4684284e14278a0e6509d99d0d463",
      "title": "Cubo BEDLAM F9"
    },
    "generator": "Sketchfab-12.65.0",
    "version": "2.0"
  },
  "bufferViews": [
    {
      "buffer": 0,
      "byteLength": 336,
      "name": "floatBufferViews",
      "target": 34963
    },
    {
      "buffer": 0,
      "byteLength": 1152,
      "byteOffset": 336,
      "byteStride": 12,
      "name": "floatBufferViews",
      "target": 34962
    }
  ],
  "buffers": [
    {
      "byteLength": 1488,
      "uri": "scene.bin"
    }
  ],
  "materials": [
    {
      "doubleSided": true,
      "name": "Scene_-_Root",
      "pbrMetallicRoughness": {
        "baseColorFactor": [
          0.564711505704929,
          0.6172065624196509,
          0.6172065624196509,
          1.0
        ],
        "metallicFactor": 0.0,
        "roughnessFactor": 0.6
      }
    }
  ],
  "meshes": [
    {
      "name": "Object_0",
      "primitives": [
        {
          "attributes": {
            "NORMAL": 1,
            "POSITION": 0
          },
          "indices": 2,
          "material": 0,
          "mode": 4
        }
      ]
    }
  ],
  "nodes": [
    {
      "children": [
        1
      ],
      "matrix": [
        2.220446049250313e-16,
        -2.220446049250313e-16,
        1.0,
        0.0,
        1.0,
        4.930380657631324e-32,
        -2.220446049250313e-16,
        0.0,
        0.0,
        1.0,
        2.220446049250313e-16,
        0.0,
        624.9998168945313,
        -1.2212480375931034e-14,
        55.0001220703125,
        1.0
      ],
      "name": "Sketchfab_model"
    },
    {
      "children": [
        2
      ],
      "name": "e10c669a88c6463397668138dbbe53c1.stl.cleaner.materialmerger.gles"
    },
    {
      "mesh": 0,
      "name": "Object_2"
    }
  ],
  "scene": 0,
  "scenes": [
    {
      "name": "Sketchfab_Scene",
      "nodes": [
        0
      ]
    }
  ]
}
